<svg version="1.1" id="Capa_1" xmlns="http://www.w3.org/2000/svg" xmlns:xlink="http://www.w3.org/1999/xlink" x="0px" y="0px"viewBox="0 0 392.963 392.963" style="enable-background:new 0 0 392.963 392.963;" xml:space="preserve"><g><g><path d="M385.763,41.882h-177.2h-0.4c-0.4,0-0.8,0-1.6,0.4c-0.4,0-0.8,0.4-1.2,0.4h-0.4l-201.2,110c-3.6,2-4.8,6.4-2.8,9.6c1.2,2.4,4,4,6.4,4c1.2,0,2.4-0.4,3.6-0.8l24.8-13.6v192c0,4,3.2,7.2,7.2,7.2h165.6h38.4h50.4h88.4c4,0,7.2-3.2,7.2-7.2v-294.8C392.964,45.082,389.763,41.882,385.763,41.882z M201.363,336.282h-151.6v-121.2h151.6V336.282z M201.363,143.482v57.2h-151.6v-56.8l151.6-82.8V143.482z M215.763,143.482v-87.2h74.4v144.8h-74.4V143.482z M290.164,336.282h-36v-72.4h36V336.282zM378.563,336.282h-74v-79.6c0-4-3.2-7.2-7.2-7.2h-50.4c-4,0-7.2,3.2-7.2,7.2v79.6h-24v-121.2h162.8V336.282z M378.964,200.682h-0.4h-74v-144.4h74.4V200.682z"/></g></g><g><g><path d="M174.963,267.882h-98.4c-4,0-7.2,3.2-7.2,7.2s3.2,7.2,7.2,7.2h98.4c4,0,7.2-3.2,7.2-7.2C182.163,271.082,178.963,267.882,174.963,267.882z"/></g></g><g><g><path d="M174.963,236.282h-98.4c-4,0-7.2,3.2-7.2,7.2s3.2,7.2,7.2,7.2h98.4c4,0,7.2-3.2,7.2-7.2C182.163,239.482,178.963,236.282,174.963,236.282z"/></g></g><g><g><path d="M174.963,299.882h-98.4c-4,0-7.2,3.2-7.2,7.2s3.2,7.2,7.2,7.2h98.4c4,0,7.2-3.2,7.2-7.2C182.163,303.082,178.963,299.882,174.963,299.882z"/></g></g><g></g><g></g><g></g><g></g><g></g><g></g><g></g><g></g><g></g><g></g><g></g><g></g><g></g><g></g><g></g></svg>