<?xml version="1.0" encoding="iso-8859-1"?>
<!-- Generator: Adobe Illustrator 19.0.0, SVG Export Plug-In . SVG Version: 6.00 Build 0)  -->
<svg version="1.1" id="Capa_1" xmlns="http://www.w3.org/2000/svg" xmlns:xlink="http://www.w3.org/1999/xlink" x="0px" y="0px"
	 viewBox="0 0 512 512" style="enable-background:new 0 0 512 512;" xml:space="preserve">
<g>
	<circle style="fill:#1E2D64;" cx="323.872" cy="495.1" r="16.647"/>
	<circle style="fill:#1E2D64;" cx="410.132" cy="495.1" r="16.647"/>
</g>
<path style="fill:#F59D89;" d="M304.776,164.136c-1.631,1.459-3.529,2.674-5.662,3.564l-74.185,30.979
	c-6.219,2.597-13.322,1.909-18.928-1.833l-81.5-54.416c-9.242-6.171-8.241-18.976-2.069-28.219
	c6.165-9.246,21.187-12.066,42.878,2.27l54.067,40.904l64.23-26.821c10.255-4.283,22.04,0.559,26.322,10.814
	C313.32,149.502,310.988,158.584,304.776,164.136z"/>
<path style="fill:#827DDC;" d="M205.057,146.552l-39.747-30.071c-21.691-14.336-36.712-11.516-42.878-2.27
	c-6.171,9.242-7.173,22.048,2.069,28.219l58.747,39.175L205.057,146.552z"/>
<circle style="fill:#FFB69E;" cx="135.473" cy="45.153" r="45.153"/>
<path style="fill:#5F6E9B;" d="M94.754,512c-1.179,0-2.373-0.08-3.573-0.244c-14.306-1.955-24.317-15.138-22.362-29.443
	L83.38,375.793l-5.77-81.375c-1.021-14.403,9.827-26.906,24.229-27.927c14.411-1.02,26.906,9.827,27.927,24.229l5.962,84.078
	c0.127,1.798,0.069,3.604-0.176,5.39l-14.927,109.205C118.833,502.497,107.621,511.999,94.754,512z"/>
<path style="fill:#414B82;" d="M167.611,511.996c-14.439,0-26.144-11.705-26.144-26.144V371.245l-13.905-98.221
	c-2.024-14.296,7.925-27.526,22.221-29.55c14.293-2.023,27.526,7.925,29.55,22.221l14.164,100.044
	c0.172,1.214,0.258,2.438,0.258,3.664v116.448C193.754,500.291,182.049,511.996,167.611,511.996z"/>
<path style="fill:#AABEEB;" d="M183.249,292.569H77.535V136.072c0-16.846,12.51-30.503,27.942-30.503h49.829
	c15.432,0,27.942,13.656,27.942,30.503v156.496H183.249z"/>
<path style="fill:#414B82;" d="M410.132,429.019h-83.737V119.292h69.613c7.801,0,14.124,6.324,14.124,14.124V429.019z"/>
<g>
	<path style="fill:#78BEFF;" d="M443.425,462.312c0-19.78-16.035-35.815-35.815-35.815h-82.729
		c-19.78,0-35.815,16.035-35.815,35.815v25.642c0,3.947,3.2,7.147,7.147,7.147h140.065c3.947,0,7.147-3.2,7.147-7.147
		L443.425,462.312L443.425,462.312z"/>
	<path style="fill:#78BEFF;" d="M305.582,209.216c-3.403,4.336-9.676,5.093-14.012,1.69l-16.044-12.591
		c-4.336-3.403-5.093-9.676-1.69-14.012L395.427,29.369c3.403-4.336,9.676-5.093,14.012-1.69l16.044,12.591
		c4.336,3.403,5.093,9.676,1.69,14.012L305.582,209.216z"/>
	<path style="fill:#78BEFF;" d="M358.679,270.859c0,7.114-5.767,12.88-12.88,12.88H232.551c-7.114,0-12.88-5.767-12.88-12.88l0,0
		c0-7.114,5.767-12.88,12.88-12.88h113.246C352.912,257.979,358.679,263.746,358.679,270.859L358.679,270.859z"/>
</g>
<path style="fill:#FFB69E;" d="M242.482,257.561c-2.179,0.195-4.427,0.035-6.67-0.525l-77.997-19.484
	c-6.539-1.633-11.823-6.43-14.082-12.78l-32.839-92.331c-3.725-10.471,1.745-21.978,12.217-25.702
	c10.468-3.731,21.978,1.745,25.702,12.217l29.224,82.166l67.53,16.87c10.782,2.694,17.339,13.617,14.646,24.399
	C258.079,250.931,250.78,256.82,242.482,257.561z"/>
<path style="fill:#96A5D7;" d="M168.018,172.954l-19.205-53.997c-3.725-10.47-15.233-15.946-25.702-12.216
	c-10.471,3.724-15.94,15.231-12.217,25.702l18.434,51.83L168.018,172.954z"/>
<g>
</g>
<g>
</g>
<g>
</g>
<g>
</g>
<g>
</g>
<g>
</g>
<g>
</g>
<g>
</g>
<g>
</g>
<g>
</g>
<g>
</g>
<g>
</g>
<g>
</g>
<g>
</g>
<g>
</g>
</svg>
